# xmcd
#
# Track frame offsets:
#	150
#	16387
#	32727
#	41425
#	59725
#	71802
#	83507
#	98935
#	111552
#	126712
#	138707
#	151710
#
# Disc length: 2213 seconds
#
# Revision: 3
# Processed by: cddbd v1.5.1PL0 Copyright (c) Steve Scherf et al.
# Submitted via: EasyCDDAExtractor 6.0.0.1
#
DISCID=ad08a30c
DTITLE=Saltcastle Bullwashers - Greatest Country Hits Vol. 1
DYEAR=1900
DGENRE=Country
TTITLE0=On the road again
TTITLE1=Banks of the Ohio
TTITLE2=Steel guitar rag
TTITLE3=Nashville Dreams - Medley
TTITLE4=I wish that i could fly a way
TTITLE5=Hey, good locking
TTITLE6=Rose Garden
TTITLE7=Everybody wants to go to heaven
TTITLE8=Memories remain
TTITLE9=Great speckled bird
TTITLE10=Why do they always look better when they´re leavin
TTITLE11=Country Roads
EXTD=
EXTT0=
EXTT1=
EXTT2=
EXTT3=
EXTT4=
EXTT5=
EXTT6=
EXTT7=
EXTT8=
EXTT9=
EXTT10=
EXTT11=
PLAYORDER=
